<svg width="13" height="16" viewBox="0 0 13 16" fill="none" xmlns="http://www.w3.org/2000/svg">
<path d="M8.88608 0H0.658228C0.483655 0 0.316232 0.0702379 0.192791 0.195262C0.0693489 0.320286 0 0.489856 0 0.666667V2.66667C0 2.84348 0.0693489 3.01305 0.192791 3.13807C0.316232 3.2631 0.483655 3.33333 0.658228 3.33333C0.832801 3.33333 1.00022 3.2631 1.12367 3.13807C1.24711 3.01305 1.31646 2.84348 1.31646 2.66667V1.33333H8.22785V14.6667H1.31646V13.3333C1.31646 13.1565 1.24711 12.987 1.12367 12.8619C1.00022 12.7369 0.832801 12.6667 0.658228 12.6667C0.483655 12.6667 0.316232 12.7369 0.192791 12.8619C0.0693489 12.987 0 13.1565 0 13.3333V15.3333C0 15.5101 0.0693489 15.6797 0.192791 15.8047C0.316232 15.9298 0.483655 16 0.658228 16H8.88608C9.06065 16 9.22807 15.9298 9.35151 15.8047C9.47496 15.6797 9.5443 15.5101 9.5443 15.3333V0.666667C9.5443 0.489856 9.47496 0.320286 9.35151 0.195262C9.22807 0.0702379 9.06065 0 8.88608 0V0Z" transform="translate(3.45569 16) scale(1 -1)" fill="#5089FC"/>
<path d="M4.82481 5.33247C4.75586 5.4024 4.70891 5.49145 4.6899 5.58838C4.67088 5.68531 4.68066 5.78578 4.71799 5.87709C4.75532 5.9684 4.81853 6.04645 4.89963 6.1014C4.98073 6.15635 5.0761 6.18572 5.17367 6.1858C5.23851 6.18593 5.30272 6.17303 5.3626 6.14786C5.42248 6.12268 5.47684 6.08573 5.52253 6.03914L8.08304 3.44581C8.12876 3.39852 8.16557 3.34316 8.19165 3.28247C8.21554 3.22438 8.22785 3.16207 8.22785 3.09914C8.22785 3.03621 8.21554 2.9739 8.19165 2.91581C8.16557 2.85512 8.12876 2.79976 8.08304 2.75247L5.52253 0.159139C5.47734 0.110014 5.42283 0.070613 5.36228 0.043285C5.30172 0.015957 5.23635 0.00126234 5.17007 7.78132e-05C5.10378 -0.00110671 5.03794 0.0112432 4.97647 0.0363906C4.915 0.0615379 4.85916 0.0989676 4.81228 0.146447C4.7654 0.193926 4.72844 0.250482 4.70362 0.312741C4.67879 0.374999 4.66659 0.441685 4.66776 0.50882C4.66893 0.575956 4.68344 0.642165 4.71042 0.703498C4.7374 0.764831 4.77631 0.820031 4.82481 0.865806L6.54278 2.60581H0.493671C0.362741 2.60581 0.237174 2.65848 0.144593 2.75225C0.0520116 2.84602 0 2.9732 0 3.10581C0 3.23841 0.0520116 3.36559 0.144593 3.45936C0.237174 3.55313 0.362741 3.60581 0.493671 3.60581H6.54278L4.82481 5.33247Z" transform="translate(0 11.0925) scale(1 -1)" fill="#5089FC"/>
</svg>
