<svg width="123" height="25" viewBox="0 0 123 25" fill="none" xmlns="http://www.w3.org/2000/svg">
<path d="M4.512 7H1.416V19H4.512V13.264C4.512 12.112 4.872 11.296 5.616 10.792C6.36 10.288 7.224 10.096 8.16 10.216V6.76C6.528 6.76 5.088 7.528 4.512 9.064V7ZM21.1894 14.272C21.2614 13.816 21.3094 13.408 21.3094 13C21.3094 11.2 20.7334 9.712 19.5814 8.488C18.4534 7.264 16.9894 6.664 15.2374 6.664C13.3894 6.664 11.8534 7.264 10.6774 8.488C9.50138 9.688 8.90137 11.2 8.90137 13C8.90137 14.824 9.50138 16.336 10.7014 17.536C11.9014 18.736 13.4854 19.336 15.4774 19.336C17.7814 19.336 19.5334 18.472 20.7094 16.768L18.2134 15.328C17.6134 16.12 16.7014 16.528 15.5254 16.528C13.6774 16.528 12.5494 15.784 12.1414 14.272H21.1894ZM12.0934 11.872C12.4534 10.336 13.5814 9.448 15.2374 9.448C16.6534 9.448 17.8534 10.24 18.2134 11.872H12.0934ZM32.4729 8.416C31.5609 7.24 30.2649 6.664 28.5849 6.664C26.9769 6.664 25.5849 7.288 24.4329 8.512C23.3049 9.736 22.7289 11.224 22.7289 13C22.7289 14.776 23.3049 16.288 24.4329 17.512C25.5849 18.736 26.9769 19.336 28.5849 19.336C30.2649 19.336 31.5609 18.76 32.4729 17.584V19H35.5689V2.2H32.4729V8.416ZM26.7609 15.448C26.1369 14.8 25.8249 13.984 25.8249 13C25.8249 12.016 26.1369 11.2 26.7609 10.576C27.4089 9.928 28.2009 9.616 29.1609 9.616C30.1209 9.616 30.9129 9.928 31.5369 10.576C32.1609 11.2 32.4729 12.016 32.4729 13C32.4729 13.984 32.1609 14.8 31.5369 15.448C30.9129 16.072 30.1209 16.384 29.1609 16.384C28.2009 16.384 27.4089 16.072 26.7609 15.448ZM41.4964 7H38.4004V19H41.4964V13.264C41.4964 12.112 41.8564 11.296 42.6004 10.792C43.3444 10.288 44.2084 10.096 45.1444 10.216V6.76C43.5124 6.76 42.0724 7.528 41.4964 9.064V7ZM58.1738 14.272C58.2458 13.816 58.2938 13.408 58.2938 13C58.2938 11.2 57.7178 9.712 56.5658 8.488C55.4378 7.264 53.9738 6.664 52.2218 6.664C50.3738 6.664 48.8378 7.264 47.6618 8.488C46.4858 9.688 45.8857 11.2 45.8857 13C45.8857 14.824 46.4858 16.336 47.6858 17.536C48.8858 18.736 50.4698 19.336 52.4618 19.336C54.7658 19.336 56.5178 18.472 57.6938 16.768L55.1978 15.328C54.5978 16.12 53.6858 16.528 52.5098 16.528C50.6618 16.528 49.5338 15.784 49.1258 14.272H58.1738ZM49.0778 11.872C49.4378 10.336 50.5658 9.448 52.2218 9.448C53.6378 9.448 54.8378 10.24 55.1978 11.872H49.0778ZM72.0253 14.272C72.0973 13.816 72.1453 13.408 72.1453 13C72.1453 11.2 71.5693 9.712 70.4173 8.488C69.2893 7.264 67.8253 6.664 66.0733 6.664C64.2253 6.664 62.6893 7.264 61.5133 8.488C60.3373 9.688 59.7373 11.2 59.7373 13C59.7373 14.824 60.3373 16.336 61.5373 17.536C62.7373 18.736 64.3213 19.336 66.3133 19.336C68.6173 19.336 70.3693 18.472 71.5453 16.768L69.0493 15.328C68.4493 16.12 67.5373 16.528 66.3613 16.528C64.5133 16.528 63.3853 15.784 62.9773 14.272H72.0253ZM62.9293 11.872C63.2893 10.336 64.4173 9.448 66.0733 9.448C67.4893 9.448 68.6893 10.24 69.0493 11.872H62.9293Z" fill="black"/>
<path d="M11.064 8.776C10.08 7.384 8.688 6.688 6.888 6.688C5.184 6.688 3.768 7.288 2.592 8.512C1.416 9.712 0.84 11.176 0.84 12.88C0.84 14.584 1.416 16.048 2.592 17.272C3.768 18.472 5.184 19.072 6.888 19.072C8.688 19.072 10.08 18.376 11.064 16.984V18.448C11.064 20.536 9.72 21.76 7.488 21.76C5.784 21.76 4.608 21.136 3.984 19.912L1.752 21.208C2.784 23.152 4.68 24.112 7.44 24.112C9.144 24.112 10.608 23.632 11.808 22.648C13.008 21.664 13.608 20.272 13.608 18.448V7H11.064V8.776ZM4.512 15.568C3.792 14.848 3.432 13.96 3.432 12.88C3.432 11.8 3.792 10.912 4.512 10.192C5.256 9.472 6.168 9.112 7.248 9.112C8.328 9.112 9.24 9.472 9.96 10.192C10.704 10.912 11.064 11.8 11.064 12.88C11.064 13.96 10.704 14.848 9.96 15.568C9.24 16.288 8.328 16.648 7.248 16.648C6.168 16.648 5.256 16.288 4.512 15.568ZM19.0772 4.72C19.7492 4.048 19.7492 3.04 19.1012 2.392C18.4532 1.72 17.3972 1.72 16.7492 2.392C16.1012 3.04 16.1012 4.048 16.7492 4.72C17.4212 5.368 18.4292 5.368 19.0772 4.72ZM19.2212 19V7H16.6292V19H19.2212ZM28.5188 1.888C24.9668 1.672 23.0948 3.472 23.0948 6.76V7H21.2708V9.496H23.0948V19H25.6868V9.496H28.5188V7H25.6868V6.76C25.6868 5.008 26.6228 4.216 28.5188 4.384V1.888ZM37.1533 7H34.1773V3.64L31.5853 4.408V7H29.3773V9.496H31.5853V15.256C31.5853 18.4 33.1933 19.48 37.1533 19V16.672C35.1853 16.768 34.1773 16.792 34.1773 15.256V9.496H37.1533V7Z" transform="translate(84)" fill="#5089FC"/>
<circle cx="2.5" cy="2.5" r="2.5" transform="translate(76 15)" fill="#5089FC"/>
</svg>
